<svg xmlns="http://www.w3.org/2000/svg" viewBox="0 0 1804.994 877.549"><defs><style>.a{fill:#f8fafc;stroke-linejoin:round;stroke-dasharray:10 10;}.a,.c{stroke:#7a4acf;stroke-width:4px;}.b{fill:#7a4acf;font-size:24px;font-family:HelveticaNeue, Helvetica Neue;}.c,.e{fill:none;}.c{stroke-dasharray:10;}.d{stroke:none;}</style></defs><g transform="translate(-55 -128)"><g transform="translate(-207)"><g class="a" transform="translate(715 128)"><rect class="d" width="1020.954" height="86.869" rx="43.434"/><rect class="e" x="2" y="2" width="1016.954" height="82.869" rx="41.434"/></g><text class="b" transform="translate(732 158)"><tspan x="27.417" y="23">1. Enter facebook &gt; Settings &gt; Your facebook information &gt; Download your information</tspan></text></g><g transform="translate(-660 578)"><g class="a" transform="translate(715 128)"><rect class="d" width="967.494" height="90.683" rx="45.342"/><rect class="e" x="2" y="2" width="963.494" height="86.683" rx="43.342"/></g><text class="b" transform="translate(715 159)"><tspan x="183.423" y="23">2. Choose Friends, Profile information and Messages </tspan></text></g><g transform="translate(-113 745.549)"><g class="a" transform="translate(715 128)"><rect class="d" width="1257.994" height="92.451" rx="46.225"/><rect class="e" x="2" y="2" width="1253.994" height="88.451" rx="44.225"/></g><text class="b" transform="translate(715 161)"><tspan x="53.933" y="23" xml:space="preserve">3. Set format to JSON  and low media quality and press Create File. Then download and upload zip here</tspan></text></g><path class="c" d="M0-35.091s-279.325,4.343-298.743,270.336S0,503,0,503" transform="translate(508.5 203.5)"/><path class="c" d="M57.994-41.663S406.963-65.924,410.176,21.176s-203.826,74.2-203.826,74.2" transform="translate(964.5 777.5)"/></g></svg>